<svg id="ehS6tx5IdBp1" xmlns="http://www.w3.org/2000/svg" xmlns:xlink="http://www.w3.org/1999/xlink" viewBox="0 0 313.05 374.13" shape-rendering="geometricPrecision" text-rendering="geometricPrecision"><style><![CDATA[#ehS6tx5IdBp5_to {animation: ehS6tx5IdBp5_to__to 3000ms linear infinite normal forwards}@keyframes ehS6tx5IdBp5_to__to { 0% {transform: translate(291.499908px,260.123236px)} 16.666667% {transform: translate(292.034405px,293.608673px)} 33.333333% {transform: translate(291.499908px,258.72801px)} 46.666667% {transform: translate(291.499908px,284.539701px)} 66.666667% {transform: translate(292.034405px,293.608673px)} 76.666667% {transform: translate(292.034405px,259.27852px)} 83.333333% {transform: translate(291.499908px,293.608673px)} 100% {transform: translate(291.499908px,257.739392px)}} #ehS6tx5IdBp8_ts {animation: ehS6tx5IdBp8_ts__ts 3000ms linear infinite normal forwards}@keyframes ehS6tx5IdBp8_ts__ts { 0% {transform: translate(208.442833px,128.098152px) scale(1,1)} 46.666667% {transform: translate(208.442833px,128.098152px) scale(1,1)} 56.666667% {transform: translate(208.442833px,128.098152px) scale(1,0.279861)} 66.666667% {transform: translate(208.442833px,128.098152px) scale(1,0.981961)} 100% {transform: translate(208.442833px,128.098152px) scale(1,0.981961)}} #ehS6tx5IdBp9_ts {animation: ehS6tx5IdBp9_ts__ts 3000ms linear infinite normal forwards}@keyframes ehS6tx5IdBp9_ts__ts { 0% {transform: translate(241.039146px,128.006401px) scale(1,0.967966)} 46.666667% {transform: translate(241.039146px,128.006401px) scale(1,0.967966)} 56.666667% {transform: translate(241.039146px,128.006401px) scale(1,0.413943)} 66.666667% {transform: translate(241.039146px,128.006401px) scale(1,0.989009)} 100% {transform: translate(241.039146px,128.006401px) scale(1,0.989009)}}]]></style><g id="ehS6tx5IdBp2"><path id="ehS6tx5IdBp3" d="M289,229L233.5,229C230.02,229,230,229,230,232.28Q230,249.53,230,266.78C229.944566,267.779232,229.944566,268.780768,230,269.78C230.17,271.41,229.9,272.17,227.9,272.07C223.9,271.86,219.9,272.07,215.9,271.98C214.43,271.98,213.9,272.3,213.9,273.87C213.98,281.53,213.9,289.2,213.99,296.87C213.99,298.67,213.57,299.12,211.78,299.06C207.62,298.9,203.45,299.06,199.29,298.99C198.19,298.99,197.91,299.42,197.92,300.45C197.92,306.11,197.92,311.78,197.92,317.45C197.92,319.97,197.92,319.99,195.2,320C191.36,320,187.53,320,183.7,320C182.59,320,181.88,320,181.89,321.53Q181.98,339.02,181.89,356.53C181.89,358.09,182.67,358.03,183.73,358.03C187.9,358.03,192.07,358.03,196.23,358.03C197.46,358.03,197.99,358.28,197.96,359.66C197.85,364.31,197.88,368.97,197.86,373.66C193.44,374.6,188.98,374,184.54,374.05C175.37,374.17,166.21,374.05,157.04,374.14C155.18,374.14,154.87,373.63,154.88,371.91C154.97,360.75,154.88,349.58,154.88,338.42C154.88,336.12,154.88,336.1,152.42,336.09L136.42,336.09C133.92,336.09,133.89,336.09,133.88,338.34Q133.88,347.09,133.88,355.84C133.88,358.06,133.88,358.07,136.42,358.08C140.42,358.08,144.42,358.08,148.42,358.08C149.42,358.08,149.9,358.32,149.89,359.43C149.89,363.93,149.89,368.43,149.89,372.93C149.89,373.73,149.61,374.15,148.76,374.1C148.43,374.1,148.1,374.1,147.76,374.1C134.76,374.1,121.76,374.1,108.76,374.1C107.22,374.1,106.84,373.65,106.84,372.16C106.9,360.83,106.84,349.49,106.93,338.16C106.93,336.25,106.35,336.01,104.68,336.03C97.51,336.12,90.35,336.08,83.18,336.03C80.91,336.03,80.91,336.03,80.88,333.55C80.88,333.05,80.88,332.55,80.88,332.05C80.69,328.05,81.29,324.13,80.54,320.2C76.54,320.14,72.54,320.06,68.61,320.05C60.94,320.05,53.28,320.05,45.61,320.05C42.92,320.05,42.9,320.05,42.89,317.49C42.89,311.83,42.89,306.16,42.89,300.49C42.89,299.49,42.62,299.02,41.52,299.03C37.19,299.03,32.86,299.03,28.52,299.08C27.22,299.08,26.71,298.71,26.86,297.4C26.900052,296.733935,26.900052,296.066065,26.86,295.4L26.86,190.9C26.86,190.07,26.91,189.23,26.86,188.4C26.78,187.31,27.25,187,28.3,187.01C32.46,187.06,36.64,186.89,40.79,187.09C42.79,187.18,42.93,186.46,42.91,184.82C42.83,177.32,42.91,169.82,42.91,162.32C42.91,160.06,42.91,160.06,45.41,160.03L46.41,160.03C50.52,159.81,54.66,160.48,58.76,159.68C58.76,155.53,58.89,151.38,58.9,147.24C58.9,132.57,58.9,117.91,58.9,103.24C58.9,101.61,58.77,100.86,56.79,100.96C52.63,101.16,48.46,100.96,44.29,101.04C43.29,101.04,42.84,100.74,42.85,99.65C42.85,95.32,42.85,90.99,42.85,86.65C42.85,85.34,42.45,84.98,41.17,84.99C33.34,84.99,25.5,84.99,17.67,85.06C16.08,85.06,15.76,84.52,15.79,83.06C15.88,79.06,15.67,75.06,15.89,71.06C16,69.06,15.18,68.93,13.59,68.97C9.59,69.06,5.59,68.97,1.59,68.97C0.69,69.05,0,69,0,67.5Q0.11,50.5,0,33.5C0,31.94,0.79,32,1.85,32C6.02,32,10.18,32,14.35,32C15.58,32,16.09,31.75,16.07,30.37C15.98,26.04,16.07,21.71,16.02,17.37C16.02,16.3,16.36,15.94,17.43,15.95C21.76,15.95,26.1,15.95,30.43,15.95C31.8,15.95,32.08,15.47,32.06,14.23C32,10.18,32.11,6,32,1.85C32,0.21,32.6,0,34,0C43.33,0.05,52.67,0,62,0L81.5,0C86,0,86,0,86,4.79C86,7.62,86,10.45,86,13.29C86,16.13,86,16.01,88.55,16.02C92.38,16.02,96.21,16.09,100.04,16.02C101.49,16.02,102.04,16.29,102.04,17.89C101.93,22.05,102.04,26.22,101.98,30.39C101.98,31.67,102.31,32.1,103.64,32.08C107.97,32,112.3,32.08,116.64,32.03C117.72,32.03,118.04,32.43,118.02,33.47C118.02,37.64,118.14,41.81,117.95,45.97C117.85,47.97,118.58,48.13,120.22,48.08C124.22,47.97,128.22,48.08,132.22,48.01C133.9,47.96,134.22,48.67,134.01,50.01C133.999999,50.176517,133.999999,50.343483,134.01,50.51Q134.01,93.51,134.01,136.51C134.01,138.97,134.01,139,131.73,139.01C128.07,139.01,124.4,139.01,120.73,139.01C118.05,139.01,118.02,139.01,118.02,141.58Q118.02,155.08,118.02,168.58C118.02,170.96,118.02,170.99,115.66,171C111.66,171,107.66,171.06,103.66,171C102.34,171,101.98,171.39,101.99,172.68C101.99,182.01,101.99,191.34,101.99,200.68C101.99,202.99,101.99,203.01,99.55,203.02C95.72,203.02,91.88,203.18,88.06,202.97C86.06,202.85,85.96,203.67,85.97,205.26Q86.03,237.51,85.97,269.75C85.97,272,85.97,272.08,88.48,272.01C92.93,271.87,97.4,272.44,101.83,271.67C101.83,267.35,101.95,263.04,101.96,258.73C101.96,247.89,101.96,237.06,101.96,226.23C101.96,224.57,102.15,223.88,104.09,223.97C108.25,224.16,112.42,223.97,116.58,224.05C117.64,224.05,118.02,223.72,118.01,222.65C118.01,216.65,118.01,210.65,118.01,204.65C118.01,203.31,118.44,202.98,119.71,203C123.87,203.07,128.04,202.95,132.2,203.07C133.82,203.07,134.07,202.5,134.06,201.07C134.01,192.24,134.06,183.4,134.06,174.57C134.06,171.05,134.06,171.04,137.81,171.03L146.3,171.03C150.05,171.03,150.05,171.03,150.05,167.03Q150.05,153.78,150.05,140.53C150.05,129.7,150.05,118.87,150.05,108.04C150.05,106.62,150.27,105.98,151.9,106.04C155.9,106.16,159.9,106.04,163.9,106.12C165.62,106.18,166.15,105.83,166.13,103.96C166.02,92.3,166.08,80.63,166.08,68.96C166.08,67.79,166.13,66.62,166.08,65.46C166.03,64.3,166.43,64.04,167.5,64.05C171.83,64.05,176.16,64.12,180.5,64.05C181.88,64.05,182.14,64.54,182.13,65.77C182.08,73.1,182.13,80.43,182.13,87.77C182.13,90.04,182.13,90.07,184.61,90.07Q198.09,90.07,211.61,90.07C214,90,214,90,214,87.26Q214,76.5,214,65.76C214,64.6,214.12,63.91,215.58,64C220.35,64.31,225.15,63.54,229.91,64.42C229.91,68.91,230,73.42,230.01,77.88C230.01,86.71,230.01,95.54,230.01,104.37C230.01,105.65,230.35,106.07,231.67,106.06C239.5,106,247.34,106.06,255.17,105.99C256.72,105.99,257.1,106.47,257.07,107.99C256.98,112.32,257.17,116.66,256.98,120.99C256.89,122.99,257.61,123.13,259.25,123.1C264.75,123.01,270.25,123.1,275.75,123.1C278,123.1,278.03,123.1,278.03,125.6Q278.03,134.85,278.03,144.1C268.03,144.1,258.12,144.15,248.17,144.05C246.41,144.05,245.95,144.42,245.97,146.23C246.09,154.85,246.03,163.47,246.03,172.1C241.24,172.1,236.45,172.1,231.66,172.1C230.38,172.1,229.98,172.46,230,173.76C230.07,178.21,230,182.67,230,187.13C230,191.59,230,196.13,230,200.59C230,203.09,230,203.12,232.73,203.12L295.03,203.12C296.19,203.12,297.36,203.17,298.52,203.12C299.52,203.06,300.02,203.31,300.01,204.44Q300.01,216.15,300.01,227.87C300.01,229.04,299.44,229.19,298.48,229.15C296.99,229.15,295.48,229.15,294,229.15ZM208.28,133.1L208.28,133C209.78,133,211.28,132.95,212.77,133C213.93,133.05,214.14,132.44,214.04,131.48C214.04,130.98,214.04,130.48,214.04,129.98C213.89,127.71,214.4,125.4,213.71,123.15C211.57,123.15,209.44,123.01,207.3,123C203.05,123,203,123,203.07,127.49C203.07,129.27,202.26,131.55,203.52,132.67C204.46,133.56,206.64,133,208.28,133.1ZM241.22,133.1C242.64,132.67,244.72,133.86,245.74,132.58C246.48,131.66,246.03,129.74,246.02,128.27C246.02,126.63,246.51,124.56,245.71,123.48C244.91,122.4,242.64,123.06,241.03,123.06C239.42,123.06,237.35,122.32,236.33,123.49C235.58,124.35,236.04,126.31,236.05,127.79C236.06,129.27,235.56,131.49,236.36,132.58C237.16,133.67,239.44,132.82,241.22,133.1Z" fill="rgb(218,120,13)" fill-rule="evenodd" stroke="none" stroke-width="1"/><path id="ehS6tx5IdBp4" d="M294,272L289,272L289,229L294,229Z" fill="rgb(58,32,3)" fill-rule="evenodd" stroke="none" stroke-width="1"/><g id="ehS6tx5IdBp5_to" transform="translate(291.499908,260.123236)"><path id="ehS6tx5IdBp5" d="M297,272C298.94,272.2,301.47,271.1,302.68,272.5C303.59,273.56,302.94,275.98,303,277.79C303,279.43,302.54,281.53,303.36,282.58C304.18,283.63,306.45,282.9,308.08,282.99C309.245762,283.054989,310.414238,283.054989,311.58,282.99C312.63,282.93,313.02,283.3,313.01,284.39C313.01,290.55,313.01,296.72,313.01,302.88C313.01,303.73,312.64,304.02,311.84,304.02C309.34,304.02,306.84,304.02,304.34,304.02C303.22,304.02,302.96,304.48,302.99,305.5C303.05,307.66,302.99,309.83,302.99,312C302.99,315,302.99,315,300.24,315C294.41,315,288.58,315,282.75,315C281.61,315,280.9,314.93,280.96,313.45C281.07,310.45,280.96,307.45,280.96,304.45C278.07,303.45,275.09,304.15,272.15,304C270.9,303.94,270.98,303.2,270.98,302.35C270.98,298.85,270.98,295.35,270.98,291.85C270.98,289.03,270.98,286.21,271.06,283.39C273.8,282.44,276.62,283.12,279.39,283.03C280.79,282.98,281.01,282.47,281,281.27C281,278.27,281.07,275.27,281.12,272.33C284.38,271.56,287.69,272.17,290.98,271.98C291.31,271.98,291.64,271.98,291.98,271.98Z" transform="translate(-291.994537,-293.388397)" fill="rgb(254,0,0)" fill-rule="evenodd" stroke="none" stroke-width="1"/></g><path id="ehS6tx5IdBp6" d="M246,172C246,163.37,246.06,154.75,245.94,146.13C245.94,144.32,246.38,143.94,248.14,143.95C258.09,144.05,268.04,144,278,144Q278,156,278,168C278,171,278,171,274.77,171C269.44,171,264.12,171,258.77,171C258.05,171,257,170.61,256.99,172Z" fill="rgb(58,32,3)" fill-rule="evenodd" stroke="none" stroke-width="1"/><path id="ehS6tx5IdBp7" d="M246,172L257,172C257,176.47,256.94,180.94,257,185.4C257,186.77,256.51,187.03,255.29,187.02C246.85,187.02,238.41,187.02,229.97,187.02C229.97,182.56,229.97,178.1,229.97,173.65C229.97,172.35,230.35,171.97,231.63,171.99C236.46,172.07,241.25,172,246,172Z" fill="rgb(230,230,230)" fill-rule="evenodd" stroke="none" stroke-width="1"/><g id="ehS6tx5IdBp8_ts" transform="translate(208.442833,128.098152) scale(1,1)"><path id="ehS6tx5IdBp8" d="M208.28,133.1C206.64,133.02,204.46,133.56,203.51,132.71C202.25,131.59,203.09,129.31,203.06,127.53C203,123,203,123,207.29,123C209.43,123,211.56,123.1,213.7,123.15C214.39,125.4,213.88,127.71,214.03,129.98C214.03,130.48,214.03,130.98,214.03,131.48C214.13,132.48,213.92,133.05,212.76,133C211.26,132.94,209.76,133,208.27,133Z" transform="translate(-208.442833,-128.098152)" fill="rgb(58,32,3)" fill-rule="evenodd" stroke="none" stroke-width="1"/></g><g id="ehS6tx5IdBp9_ts" transform="translate(241.039146,128.006401) scale(1,0.967966)"><path id="ehS6tx5IdBp9" d="M241.22,133.1C239.44,132.82,237.22,133.78,236.36,132.58C235.5,131.38,236.05,129.42,236.05,127.79C236.05,126.16,235.58,124.35,236.33,123.49C237.33,122.32,239.42,123.07,241.03,123.06C242.64,123.05,244.83,122.29,245.71,123.48C246.59,124.67,246.02,126.63,246.02,128.27C246.02,129.74,246.48,131.66,245.74,132.58C244.72,133.86,242.64,132.67,241.22,133.1Z" transform="translate(-241.039146,-128.006401)" fill="rgb(58,32,3)" fill-rule="evenodd" stroke="none" stroke-width="1"/></g></g></svg>